<?xml version="1.0"?>
<svg id="Ebene_2" data-name="Ebene 2" xmlns="http://www.w3.org/2000/svg" viewBox="0 0 931.62 142.36">
  <defs>
    
  </defs>
  <g id="Ebene_4" data-name="Ebene 4" fill="#C05A38">
    <g>
      <path class="cls-2" d="M39.36,129.23c-8,0-15.44-1.31-22.32-3.92-6.88-2.61-12.56-6.37-17.04-11.28l12.8-15.04c2.67,3.42,6.21,6.27,10.64,8.56,4.43,2.29,9.36,3.44,14.8,3.44,3.3,0,6.02-.48,8.16-1.44,2.13-.96,3.2-2.45,3.2-4.48,0-1.49-.54-2.69-1.6-3.6-1.07-.91-3.2-1.68-6.4-2.32l-11.2-2.24c-10.03-2.03-17.15-5.04-21.36-9.04-4.21-4-6.32-9.25-6.32-15.76,0-4.37,1.33-8.56,4-12.56,2.67-4,6.77-7.25,12.32-9.76,5.54-2.5,12.64-3.76,21.28-3.76,8.1,0,15.25,1.17,21.44,3.52,6.19,2.35,11.09,5.76,14.72,10.24l-12.96,14.72c-2.56-3.2-5.87-5.71-9.92-7.52-4.06-1.81-8.11-2.72-12.16-2.72-2.56,0-4.72.24-6.48.72-1.76.48-3.07,1.15-3.92,2-.85.85-1.28,1.92-1.28,3.2,0,1.39.67,2.59,2,3.6,1.33,1.01,3.81,1.89,7.44,2.64l14.56,2.88c8.21,1.5,14.13,4.21,17.76,8.16,3.62,3.95,5.44,8.7,5.44,14.24,0,5.23-1.39,9.92-4.16,14.08-2.77,4.16-6.93,7.44-12.48,9.84-5.55,2.4-12.53,3.6-20.96,3.6Z"></path>
      <path class="cls-2" d="M91.04,127.63V47.63h24.32l.8,15.52c2.56-5.65,6.16-9.92,10.8-12.8,4.64-2.88,10-4.32,16.08-4.32s11.15,1.33,15.52,4c4.37,2.67,7.62,6.61,9.76,11.84,1.71-3.52,3.92-6.45,6.64-8.8,2.72-2.35,5.84-4.11,9.36-5.28,3.52-1.17,7.15-1.76,10.88-1.76,5.33,0,10.02,1.04,14.08,3.12,4.05,2.08,7.28,5.23,9.68,9.44,2.4,4.21,3.6,9.47,3.6,15.76v53.28h-27.2v-47.04c0-5.12-.99-8.69-2.96-10.72-1.98-2.03-4.62-3.04-7.92-3.04-2.67,0-5.1.67-7.28,2-2.19,1.33-3.87,3.33-5.04,6-1.17,2.67-1.76,6.03-1.76,10.08v42.72h-27.2v-47.04c0-5.12-1.02-8.69-3.04-10.72-2.03-2.03-4.64-3.04-7.84-3.04-2.46,0-4.77.64-6.96,1.92-2.19,1.28-3.92,3.28-5.2,6-1.28,2.72-1.92,6.27-1.92,10.64v42.24h-27.2Z"></path>
      <path class="cls-2" d="M286.24,76.91c0-3.73-1.04-6.69-3.12-8.88-2.08-2.19-4.88-3.28-8.4-3.28s-6.53.88-9.04,2.64c-2.51,1.76-4.24,4.88-5.2,9.36l-23.04-5.44c1.49-7.68,5.44-13.81,11.84-18.4,6.4-4.58,15.41-6.88,27.04-6.88,7.79,0,14.42,1.15,19.92,3.44,5.49,2.29,9.71,5.71,12.64,10.24,2.93,4.54,4.4,10.11,4.4,16.72v29.28c0,4.16,1.87,6.24,5.6,6.24,1.92,0,3.46-.21,4.64-.64l-1.6,15.52c-3.2,1.49-7.1,2.24-11.68,2.24-4.16,0-7.84-.67-11.04-2-3.2-1.33-5.71-3.36-7.52-6.08-1.81-2.72-2.72-6.16-2.72-10.32v-.96l3.04-1.12c0,4.59-1.36,8.43-4.08,11.52-2.72,3.09-6.24,5.39-10.56,6.88-4.32,1.49-8.83,2.24-13.52,2.24-5.44,0-10.19-.85-14.24-2.56-4.05-1.71-7.17-4.18-9.36-7.44-2.19-3.25-3.28-7.28-3.28-12.08,0-5.76,1.73-10.53,5.2-14.32,3.47-3.79,8.93-6.42,16.4-7.92l30.24-6.24-.16,14.4-15.36,3.2c-3.2.64-5.57,1.58-7.12,2.8-1.55,1.23-2.32,3.07-2.32,5.52s.85,4.11,2.56,5.28c1.71,1.17,3.73,1.76,6.08,1.76,1.81,0,3.54-.26,5.2-.8,1.65-.53,3.12-1.36,4.4-2.48,1.28-1.12,2.29-2.53,3.04-4.24.75-1.71,1.12-3.73,1.12-6.08v-21.12Z"></path>
      <path class="cls-2" d="M361.12,17.71v82.72c0,3.52.58,6.03,1.76,7.52,1.17,1.5,3.15,2.24,5.92,2.24,1.6,0,2.93-.1,4-.32,1.06-.21,2.35-.53,3.84-.96l-1.76,16.32c-1.92,1.18-4.43,2.14-7.52,2.88-3.09.74-6.13,1.12-9.12,1.12-8.53,0-14.72-1.97-18.56-5.92-3.84-3.94-5.76-10.4-5.76-19.36V17.71h27.2Z"></path>
      <path class="cls-2" d="M413.44,17.71v82.72c0,3.52.58,6.03,1.76,7.52,1.17,1.5,3.15,2.24,5.92,2.24,1.6,0,2.93-.1,4-.32,1.06-.21,2.35-.53,3.84-.96l-1.76,16.32c-1.92,1.18-4.43,2.14-7.52,2.88-3.09.74-6.13,1.12-9.12,1.12-8.53,0-14.72-1.97-18.56-5.92-3.84-3.94-5.76-10.4-5.76-19.36V17.71h27.2Z"></path>
    </g>
    <g>
      <path class="cls-2" d="M643.15,46.03c8.11,0,14.85,1.15,20.24,3.44,5.38,2.29,9.6,5.33,12.64,9.12,3.04,3.79,4.93,7.87,5.68,12.24l-25.12,8.32c-.75-4.58-2.11-8.02-4.08-10.32-1.98-2.29-4.83-3.44-8.56-3.44-3.42,0-6.27.78-8.56,2.32-2.29,1.55-4.03,4-5.2,7.36-1.17,3.36-1.76,7.65-1.76,12.88s.64,9.47,1.92,12.72c1.28,3.25,3.09,5.6,5.44,7.04,2.35,1.44,5.12,2.16,8.32,2.16,2.67,0,4.88-.5,6.64-1.52,1.76-1.01,3.23-2.48,4.4-4.4,1.17-1.92,1.92-4.27,2.24-7.04l24.48,7.84c-.75,4.7-2.75,8.88-6,12.56-3.25,3.68-7.55,6.59-12.88,8.72-5.33,2.13-11.58,3.2-18.72,3.2-8.75,0-16.38-1.62-22.88-4.88-6.51-3.25-11.52-8-15.04-14.24-3.52-6.24-5.28-13.73-5.28-22.48s1.76-16.24,5.28-22.48c3.52-6.24,8.45-10.98,14.8-14.24,6.34-3.25,13.68-4.88,22-4.88Z"></path>
      <path class="cls-2" d="M722.83,17.71v82.72c0,3.52.58,6.03,1.76,7.52,1.17,1.5,3.15,2.24,5.92,2.24,1.6,0,2.93-.1,4-.32,1.07-.21,2.35-.53,3.84-.96l-1.76,16.32c-1.92,1.18-4.43,2.14-7.52,2.88-3.09.74-6.13,1.12-9.12,1.12-8.54,0-14.72-1.97-18.56-5.92-3.84-3.94-5.76-10.4-5.76-19.36V17.71h27.2Z"></path>
      <path class="cls-2" d="M775.31,129.23c-5.44,0-10.21-.93-14.32-2.8-4.11-1.87-7.33-4.88-9.68-9.04-2.35-4.16-3.52-9.6-3.52-16.32v-53.44h27.2v47.04c0,5.12,1.01,8.7,3.04,10.72,2.03,2.03,4.91,3.04,8.64,3.04,1.92,0,3.73-.34,5.44-1.04,1.71-.69,3.2-1.76,4.48-3.2,1.28-1.44,2.26-3.3,2.96-5.6.69-2.29,1.04-4.99,1.04-8.08v-42.88h27.2v80h-24.32l-.8-15.04c-2.56,5.66-6.14,9.84-10.72,12.56-4.59,2.72-10.13,4.08-16.64,4.08Z"></path>
      <path class="cls-2" d="M898.66,129.23c-5.23,0-9.84-1.17-13.84-3.52s-7.28-5.57-9.84-9.68c-2.56-4.11-4.21-8.77-4.96-14l2.56-3.36-1.44,28.96h-23.84V17.71h27.2v55.04l-2.56-3.84c1.49-6.61,4.53-12.08,9.12-16.4,4.58-4.32,10.77-6.48,18.56-6.48,6.18,0,11.71,1.65,16.56,4.96,4.85,3.31,8.64,8.08,11.36,14.32,2.72,6.24,4.08,13.79,4.08,22.64s-1.39,16.05-4.16,22.24c-2.78,6.19-6.62,10.91-11.52,14.16-4.91,3.25-10.67,4.88-17.28,4.88ZM889.22,109.23c4.69,0,8.37-1.73,11.04-5.2,2.67-3.47,4-8.93,4-16.4s-1.33-12.93-4-16.4c-2.67-3.46-6.35-5.2-11.04-5.2-3.09,0-5.74.88-7.92,2.64-2.19,1.76-3.87,4.24-5.04,7.44-1.17,3.2-1.76,7.09-1.76,11.68s.58,8.48,1.76,11.68c1.17,3.2,2.88,5.63,5.12,7.28,2.24,1.66,4.85,2.48,7.84,2.48Z"></path>
    </g>
    <g>
      <path class="cls-1" d="M587.44,71.18c0,1.6-.05,3.18-.16,4.74-.2,3.22-.64,6.4-1.26,9.49-.66,3.25-1.53,6.42-2.63,9.49-1.16,3.29-2.55,6.46-4.16,9.5-.4.78-.83,1.54-1.27,2.3-1.43,2.5-3.02,4.89-4.74,7.19-1.49,1.98-3.08,3.88-4.76,5.69-1.22,1.31-2.49,2.58-3.8,3.8-1.81,1.68-3.71,3.27-5.69,4.76-2.29,1.71-4.69,3.3-7.18,4.74-.76.44-1.53.87-2.31,1.27-3.04,1.61-6.21,3.01-9.5,4.16-3.07,1.09-6.24,1.97-9.49,2.63-3.09.63-6.26,1.06-9.49,1.26-1.57.11-3.15.16-4.74.16s-3.18-.05-4.75-.16c-3.22-.21-6.4-.64-9.49-1.26-3.25-.66-6.42-1.53-9.49-2.63-3.28-1.16-6.46-2.55-9.5-4.16-.78-.4-1.54-.83-2.3-1.27-2.5-1.43-4.89-3.02-7.19-4.74-.05-.04-.09-.07-.14-.11,0,0,0-.02,0-.03l.14-.29,2.1-4.33,4.6-9.49,2.79-5.76,1.81-3.73,2.21-4.56,2.4-4.94,3.09-6.37,1.51-3.12,4.6-9.49,3.38-6.97,1.22-2.53,4.6-9.49.62-1.27.31-.64.22-.46c.69-1.4,1.53-2.71,2.51-3.92.95-1.18,2.02-2.26,3.2-3.19,1.51-1.23,3.19-2.25,5.01-3.02h0c.42-.19.85-.35,1.29-.5,2.22-.79,4.62-1.22,7.12-1.22.8,0,1.6.05,2.37.13,3.48.38,6.71,1.6,9.49,3.47.53.36,1.05.74,1.55,1.15,3.05,2.45,5.4,5.73,6.73,9.49.79,2.22,1.22,4.62,1.22,7.12,0,.8-.05,1.59-.13,2.37-.39,3.49-1.61,6.72-3.47,9.5-1.55,2.33-3.56,4.33-5.89,5.89-2.78,1.86-6.01,3.09-9.49,3.47-.71.08-1.44.12-2.18.13h-7.44c-3.76,0-7.01,2.19-8.54,5.35v.02s-.82,1.7-.82,1.7l-1.16,2.42-4.54,9.5-2.91,6.09c2.75,1.13,5.63,2.01,8.61,2.6,1.91.38,3.85.65,5.84.79,1.16.09,2.34.13,3.53.13h.13c1.14,0,2.27-.05,3.4-.13,2.07-.15,4.11-.43,6.09-.84,3.3-.67,6.48-1.7,9.49-3.03,3.4-1.49,6.57-3.36,9.5-5.58.02,0,.03-.02.05-.03,3.57-2.71,6.74-5.91,9.42-9.5,0,0,.02-.02.02-.03,2.17-2.91,4.01-6.09,5.47-9.46,1.3-3.02,2.31-6.19,2.97-9.49.6-3.02.92-6.15.92-9.36v-.13c0-3.25-.34-6.43-.98-9.49-.67-3.3-1.7-6.48-3.03-9.49-1.44-3.28-3.24-6.36-5.36-9.2-.07-.1-.15-.19-.22-.29-2.64-3.5-5.77-6.62-9.26-9.26-.1-.08-.19-.15-.29-.22-2.84-2.12-5.92-3.91-9.2-5.36-3.01-1.33-6.19-2.36-9.49-3.03-3.06-.64-6.24-.97-9.49-.98h-.13l-9.36-.06-9.49-.06h-.06c-3.43,0-6.65.91-9.43,2.52-2.9,1.66-5.32,4.07-6.98,6.97l-.29.53c-.26.49-.5.99-.72,1.5l-.04.09-1.47,3.09-1.2,2.54-.83,1.74-2.16,4.55-2.34,4.95-1.93,4.07v.02s-1.03,2.15-1.03,2.15l-1.53,3.24-4.5,9.49-3.46,7.29-1.04,2.2-4.5,9.49-3.96,8.36-.53,1.13-2.65,5.59c-.83-1.82-1.58-3.68-2.25-5.59-.06-.16-.12-.32-.17-.47-1.01-2.92-1.84-5.93-2.46-9.02-.63-3.09-1.06-6.26-1.26-9.49-.11-1.57-.16-3.15-.16-4.74s.05-3.18.16-4.75c.21-3.22.64-6.4,1.26-9.49.66-3.25,1.53-6.42,2.63-9.49,1.16-3.29,2.55-6.46,4.16-9.5.4-.78.83-1.54,1.27-2.3,1.43-2.5,3.02-4.9,4.74-7.19,1.49-1.98,3.07-3.88,4.75-5.68,1.22-1.32,2.49-2.59,3.81-3.81,1.81-1.68,3.71-3.27,5.68-4.75,2.29-1.72,4.69-3.31,7.19-4.74.76-.44,1.53-.87,2.3-1.27,3.04-1.61,6.22-3.01,9.5-4.16,3.07-1.09,6.24-1.97,9.49-2.63,3.09-.63,6.26-1.05,9.49-1.26,1.57-.11,3.15-.16,4.75-.16s3.18.05,4.74.16c3.22.2,6.4.64,9.49,1.26,3.25.66,6.42,1.53,9.49,2.63,3.29,1.16,6.46,2.55,9.5,4.16.78.4,1.55.83,2.31,1.27,2.49,1.43,4.89,3.02,7.18,4.74,1.98,1.48,3.88,3.07,5.68,4.75,1.32,1.22,2.59,2.49,3.81,3.81,1.68,1.81,3.26,3.71,4.75,5.68,1.72,2.29,3.31,4.69,4.74,7.19.44.76.87,1.53,1.27,2.3,1.61,3.04,3.01,6.21,4.16,9.5,1.09,3.07,1.97,6.24,2.63,9.49.63,3.09,1.05,6.26,1.26,9.49.11,1.57.16,3.15.16,4.75Z"></path>
      <path class="cls-1" d="M473.41,128.03c-.2,1.71-.67,3.34-1.36,4.84-1.61,3.53-4.46,6.38-7.98,8-1.99.92-4.2,1.46-6.53,1.49h-.56c-8.85-.15-15.99-7.37-15.99-16.26,0-2.49.57-4.84,1.57-6.95l.22-.45,8.61-18.2c.6,1.33,1.23,2.63,1.91,3.91,0,.02,0,.03.02.05.4.76.81,1.51,1.25,2.26.31.53.62,1.06.95,1.59.22.38.46.74.71,1.12.07.13.16.26.25.4,0,.02.02.03.03.05.44.69.9,1.37,1.37,2.05.16.23.33.47.5.7.3.43.62.87.94,1.29,1.49,1.98,3.08,3.88,4.76,5.69,1.22,1.31,2.49,2.58,3.8,3.8,1.65,1.53,3.38,2.99,5.18,4.36.12.09.24.19.36.28h0Z"></path>
    </g>
  </g>
</svg>