<?xml version="1.0"?>
<svg xmlns="http://www.w3.org/2000/svg" viewBox="433 0 162 147" role="img" aria-label="small p club">
  <g fill="#F7F6F2">
    <path class="cls-1" d="M587.44,71.18c0,1.6-.05,3.18-.16,4.74-.2,3.22-.64,6.4-1.26,9.49-.66,3.25-1.53,6.42-2.63,9.49-1.16,3.29-2.55,6.46-4.16,9.5-.4.78-.83,1.54-1.27,2.3-1.43,2.5-3.02,4.89-4.74,7.19-1.49,1.98-3.08,3.88-4.76,5.69-1.22,1.31-2.49,2.58-3.8,3.8-1.81,1.68-3.71,3.27-5.69,4.76-2.29,1.71-4.69,3.3-7.18,4.74-.76.44-1.53.87-2.31,1.27-3.04,1.61-6.21,3.01-9.5,4.16-3.07,1.09-6.24,1.97-9.49,2.63-3.09.63-6.26,1.06-9.49,1.26-1.57.11-3.15.16-4.74.16s-3.18-.05-4.75-.16c-3.22-.21-6.4-.64-9.49-1.26-3.25-.66-6.42-1.53-9.49-2.63-3.28-1.16-6.46-2.55-9.5-4.16-.78-.4-1.54-.83-2.3-1.27-2.5-1.43-4.89-3.02-7.19-4.74-.05-.04-.09-.07-.14-.11,0,0,0-.02,0-.03l.14-.29,2.1-4.33,4.6-9.49,2.79-5.76,1.81-3.73,2.21-4.56,2.4-4.94,3.09-6.37,1.51-3.12,4.6-9.49,3.38-6.97,1.22-2.53,4.6-9.49.62-1.27.31-.64.22-.46c.69-1.4,1.53-2.71,2.51-3.92.95-1.18,2.02-2.26,3.2-3.19,1.51-1.23,3.19-2.25,5.01-3.02h0c.42-.19.85-.35,1.29-.5,2.22-.79,4.62-1.22,7.12-1.22.8,0,1.6.05,2.37.13,3.48.38,6.71,1.6,9.49,3.47.53.36,1.05.74,1.55,1.15,3.05,2.45,5.4,5.73,6.73,9.49.79,2.22,1.22,4.62,1.22,7.12,0,.8-.05,1.59-.13,2.37-.39,3.49-1.61,6.72-3.47,9.5-1.55,2.33-3.56,4.33-5.89,5.89-2.78,1.86-6.01,3.09-9.49,3.47-.71.08-1.44.12-2.18.13h-7.44c-3.76,0-7.01,2.19-8.54,5.35v.02s-.82,1.7-.82,1.7l-1.16,2.42-4.54,9.5-2.91,6.09c2.75,1.13,5.63,2.01,8.61,2.6,1.91.38,3.85.65,5.84.79,1.16.09,2.34.13,3.53.13h.13c1.14,0,2.27-.05,3.4-.13,2.07-.15,4.11-.43,6.09-.84,3.3-.67,6.48-1.7,9.49-3.03,3.4-1.49,6.57-3.36,9.5-5.58.02,0,.03-.02.05-.03,3.57-2.71,6.74-5.91,9.42-9.5,0,0,.02-.02.02-.03,2.17-2.91,4.01-6.09,5.47-9.46,1.3-3.02,2.31-6.19,2.97-9.49.6-3.02.92-6.15.92-9.36v-.13c0-3.25-.34-6.43-.98-9.49-.67-3.3-1.7-6.48-3.03-9.49-1.44-3.28-3.24-6.36-5.36-9.2-.07-.1-.15-.19-.22-.29-2.64-3.5-5.77-6.62-9.26-9.26-.1-.08-.19-.15-.29-.22-2.84-2.12-5.92-3.91-9.2-5.36-3.01-1.33-6.19-2.36-9.49-3.03-3.06-.64-6.24-.97-9.49-.98h-.13l-9.36-.06-9.49-.06h-.06c-3.43,0-6.65.91-9.43,2.52-2.9,1.66-5.32,4.07-6.98,6.97l-.29.53c-.26.49-.5.99-.72,1.5l-.04.09-1.47,3.09-1.2,2.54-.83,1.74-2.16,4.55-2.34,4.95-1.93,4.07v.02s-1.03,2.15-1.03,2.15l-1.53,3.24-4.5,9.49-3.46,7.29-1.04,2.2-4.5,9.49-3.96,8.36-.53,1.13-2.65,5.59c-.83-1.82-1.58-3.68-2.25-5.59-.06-.16-.12-.32-.17-.47-1.01-2.92-1.84-5.93-2.46-9.02-.63-3.09-1.06-6.26-1.26-9.49-.11-1.57-.16-3.15-.16-4.74s.05-3.18.16-4.75c.21-3.22.64-6.4,1.26-9.49.66-3.25,1.53-6.42,2.63-9.49,1.16-3.29,2.55-6.46,4.16-9.5.4-.78.83-1.54,1.27-2.3,1.43-2.5,3.02-4.9,4.74-7.19,1.49-1.98,3.07-3.88,4.75-5.68,1.22-1.32,2.49-2.59,3.81-3.81,1.81-1.68,3.71-3.27,5.68-4.75,2.29-1.72,4.69-3.31,7.19-4.74.76-.44,1.53-.87,2.3-1.27,3.04-1.61,6.22-3.01,9.5-4.16,3.07-1.09,6.24-1.97,9.49-2.63,3.09-.63,6.26-1.05,9.49-1.26,1.57-.11,3.15-.16,4.75-.16s3.18.05,4.74.16c3.22.2,6.4.64,9.49,1.26,3.25.66,6.42,1.53,9.49,2.63,3.29,1.16,6.46,2.55,9.5,4.16.78.4,1.55.83,2.31,1.27,2.49,1.43,4.89,3.02,7.18,4.74,1.98,1.48,3.88,3.07,5.68,4.75,1.32,1.22,2.59,2.49,3.81,3.81,1.68,1.81,3.26,3.71,4.75,5.68,1.72,2.29,3.31,4.69,4.74,7.19.44.76.87,1.53,1.27,2.3,1.61,3.04,3.01,6.21,4.16,9.5,1.09,3.07,1.97,6.24,2.63,9.49.63,3.09,1.05,6.26,1.26,9.49.11,1.57.16,3.15.16,4.75Z"></path>
    <path class="cls-1" d="M473.41,128.03c-.2,1.71-.67,3.34-1.36,4.84-1.61,3.53-4.46,6.38-7.98,8-1.99.92-4.2,1.46-6.53,1.49h-.56c-8.85-.15-15.99-7.37-15.99-16.26,0-2.49.57-4.84,1.57-6.95l.22-.45,8.61-18.2c.6,1.33,1.23,2.63,1.91,3.91,0,.02,0,.03.02.05.4.76.81,1.51,1.25,2.26.31.53.62,1.06.95,1.59.22.38.46.74.71,1.12.07.13.16.26.25.4,0,.02.02.03.03.05.44.69.9,1.37,1.37,2.05.16.23.33.47.5.7.3.43.62.87.94,1.29,1.49,1.98,3.08,3.88,4.76,5.69,1.22,1.31,2.49,2.58,3.8,3.8,1.65,1.53,3.38,2.99,5.18,4.36.12.09.24.19.36.28h0Z"></path>
  </g>
</svg>